<?xml version="1.0" encoding="UTF-8"?>
<svg id="_圖層_1" data-name="圖層_1" xmlns="http://www.w3.org/2000/svg" version="1.1" viewBox="0 0 44 44">
  <!-- Generator: Adobe Illustrator 29.5.0, SVG Export Plug-In . SVG Version: 2.1.0 Build 137)  -->
  <defs>
    <style>
      .st0 {
        fill: #fff;
      }

      .st1 {
        fill: #5865f2;
      }
    </style>
  </defs>
  <path id="Rectangle_2" class="st1" d="M0,22C0,9.8,9.8,0,22,0s22,9.8,22,22-9.8,22-22,22S0,34.2,0,22Z"/>
  <g id="Discord_Logos">
    <path id="Discord_Logo_-_Large_-_White" class="st0" d="M31,13.8c-1.7-.8-3.5-1.3-5.4-1.6-.3.5-.5.9-.7,1.4-1-.1-2-.2-3-.2-1,0-2,0-3,.2-.2-.5-.4-.9-.7-1.4-1.9.3-3.7.9-5.4,1.7-3.4,5-4.3,9.9-3.9,14.7,2,1.5,4.2,2.6,6.6,3.3.5-.7,1-1.5,1.4-2.3-.8-.3-1.5-.6-2.2-1.1.2-.1.4-.3.5-.4,2.1,1,4.3,1.5,6.6,1.5s4.5-.5,6.6-1.5c.2.1.4.3.5.4-.7.4-1.5.8-2.2,1.1.4.8.9,1.6,1.4,2.3,2.4-.7,4.6-1.8,6.6-3.3h0c.5-5.6-.9-10.4-3.9-14.7ZM17.7,25.6c-1.3,0-2.3-1.2-2.3-2.6s1-2.6,2.3-2.6,2.4,1.2,2.3,2.6c0,1.4-1,2.6-2.3,2.6ZM26.3,25.6c-1.3,0-2.3-1.2-2.3-2.6s1-2.6,2.3-2.6,2.4,1.2,2.3,2.6c0,1.4-1,2.6-2.3,2.6Z"/>
  </g>
</svg>