<svg width="44" height="44" viewBox="0 0 44 44" fill="none" xmlns="http://www.w3.org/2000/svg">
<path d="M0 22C0 9.84974 9.84974 0 22 0C34.1503 0 44 9.84974 44 22C44 34.1503 34.1503 44 22 44C9.84974 44 0 34.1503 0 22Z" fill="#333333"/>
<mask id="mask0_12605_7418" style="mask-type:alpha" maskUnits="userSpaceOnUse" x="10" y="10" width="24" height="24">
<rect x="10" y="10" width="24" height="24" fill="#D9D9D9"/>
</mask>
<g mask="url(#mask0_12605_7418)">
<path d="M14 30C13.45 30 12.9792 29.8042 12.5875 29.4125C12.1958 29.0208 12 28.55 12 28V16C12 15.45 12.1958 14.9792 12.5875 14.5875C12.9792 14.1958 13.45 14 14 14H30C30.55 14 31.0208 14.1958 31.4125 14.5875C31.8042 14.9792 32 15.45 32 16V28C32 28.55 31.8042 29.0208 31.4125 29.4125C31.0208 29.8042 30.55 30 30 30H14ZM22 23L14 18V28H30V18L22 23ZM22 21L30 16H14L22 21ZM14 18V16V28V18Z" fill="white"/>
</g>
</svg>
