<svg width="44" height="44" viewBox="0 0 44 44" fill="none" xmlns="http://www.w3.org/2000/svg">
<g clip-path="url(#clip0_12601_922)">
<path d="M44 22C44 9.84971 34.1503 0 22 0C9.84971 0 0 9.84971 0 22C0 32.3149 7.10286 40.9766 16.6823 43.3526V28.7257H12.144V22H16.6823V19.1023C16.6823 11.616 20.0703 8.14629 27.4246 8.14629C28.82 8.14629 31.2211 8.41657 32.208 8.69314V14.7903C31.6863 14.7337 30.7874 14.7086 29.6686 14.7086C26.0606 14.7086 24.6651 16.0726 24.6651 19.6303V22H31.8497L30.6177 28.7257H24.6651V43.8429C35.5583 42.5229 44 33.2451 44 22Z" fill="#0866FF"/>
<path d="M30.6177 28.7257L31.8497 22H24.6651V19.624C24.6651 16.0726 26.0606 14.7023 29.6686 14.7023C30.7874 14.7023 31.6926 14.7274 32.208 14.784V8.68687C31.2211 8.41659 28.82 8.14001 27.4246 8.14001C20.0703 8.14001 16.6823 11.6097 16.6823 19.096V22H12.144V28.7257H16.6823V43.3526C18.3857 43.7737 20.1646 44 22 44C22.9051 44 23.7914 43.9434 24.6651 43.8366V28.7257H30.6177Z" fill="white"/>
</g>
<defs>
<clipPath id="clip0_12601_922">
<rect width="44" height="44" fill="white"/>
</clipPath>
</defs>
</svg>
