<?xml version="1.0" encoding="UTF-8"?>
<svg id="_圖層_1" data-name="圖層_1" xmlns="http://www.w3.org/2000/svg" version="1.1" viewBox="0 0 44 44">
  <!-- Generator: Adobe Illustrator 29.5.0, SVG Export Plug-In . SVG Version: 2.1.0 Build 137)  -->
  <defs>
    <style>
      .st0 {
        fill: #2bab38;
      }

      .st1 {
        fill: #fff;
      }
    </style>
  </defs>
  <path id="Rectangle_2" class="st0" d="M0,22C0,9.8,9.8,0,22,0s22,9.8,22,22-9.8,22-22,22S0,34.2,0,22Z"/>
  <path id="Vector_2" class="st1" d="M37.9,20.1c0-7.2-7.2-13-16-13S5.9,12.9,5.9,20.1s5.7,11.8,13.4,12.8c.5.1,1.2.3,1.4.8.2.4.1,1,0,1.4,0,0-.2,1.1-.2,1.4,0,.4-.3,1.6,1.4.9,1.7-.7,9.2-5.4,12.6-9.3,2.3-2.5,3.4-5.1,3.4-8Z"/>
  <path id="Vector_3" class="st0" d="M18.7,16.6h-1.1c-.2,0-.3.1-.3.3v7c0,.2.1.3.3.3h1.1c.2,0,.3-.1.3-.3v-7c0-.2-.1-.3-.3-.3Z"/>
  <path id="Vector_4" class="st0" d="M26.4,16.6h-1.1c-.2,0-.3.1-.3.3v4.1l-3.2-4.3s0,0,0,0h0s0,0,0,0c0,0,0,0,0,0,0,0,0,0,0,0,0,0,0,0,0,0,0,0,0,0,0,0,0,0,0,0,0,0,0,0,0,0,0,0,0,0,0,0,0,0,0,0,0,0,0,0,0,0,0,0,0,0,0,0,0,0,0,0,0,0,0,0,0,0,0,0,0,0,0,0,0,0,0,0,0,0,0,0,0,0,0,0,0,0,0,0,0,0,0,0,0,0,0,0h-1.1c-.2,0-.3.1-.3.3v7c0,.2.1.3.3.3h1.1c.2,0,.3-.1.3-.3v-4.1l3.2,4.3s0,0,0,0c0,0,0,0,0,0,0,0,0,0,0,0,0,0,0,0,0,0,0,0,0,0,0,0,0,0,0,0,0,0,0,0,0,0,0,0,0,0,0,0,0,0,0,0,0,0,0,0,0,0,0,0,0,0h1.1c.2,0,.3-.1.3-.3v-7c0-.2-.1-.3-.3-.3Z"/>
  <path id="Vector_5" class="st0" d="M16,22.5h-3.1v-5.5c0-.2-.1-.3-.3-.3h-1.1c-.2,0-.3.1-.3.3v7h0c0,0,0,.2,0,.2,0,0,0,0,0,0,0,0,0,0,0,0,0,0,.1,0,.2,0h4.5c.2,0,.3-.1.3-.3v-1.1c0-.2-.1-.3-.3-.3Z"/>
  <path id="Vector_6" class="st0" d="M32.6,18.4c.2,0,.3-.1.3-.3v-1.1c0-.2-.1-.3-.3-.3h-4.5c0,0-.2,0-.2,0,0,0,0,0,0,0,0,0,0,0,0,0,0,0,0,.1,0,.2v7c0,0,0,.2,0,.2,0,0,0,0,0,0,0,0,0,0,0,0,0,0,.1,0,.2,0h4.5c.2,0,.3-.1.3-.3v-1.1c0-.2-.1-.3-.3-.3h-3.1v-1.2h3.1c.2,0,.3-.1.3-.3v-1.1c0-.2-.1-.3-.3-.3h-3.1v-1.2h3.1Z"/>
</svg>