<?xml version="1.0" encoding="UTF-8"?>
<svg id="_圖層_1" data-name="圖層_1" xmlns="http://www.w3.org/2000/svg" version="1.1" viewBox="0 0 44 44">
  <!-- Generator: Adobe Illustrator 29.5.0, SVG Export Plug-In . SVG Version: 2.1.0 Build 137)  -->
  <defs>
    <style>
      .st0 {
        fill: #1070a8;
      }

      .st1 {
        fill: #fff;
      }
    </style>
  </defs>
  <path id="Rectangle_2" class="st0" d="M0,22C0,9.8,9.8,0,22,0s22,9.8,22,22-9.8,22-22,22S0,34.2,0,22Z"/>
  <g id="Group">
    <path id="Vector" class="st1" d="M15.2,34.4h-5.1v-16.5h5.1v16.5ZM12.6,15.6c-1.6,0-3-1.3-3-3s1.3-3,3-3,3,1.3,3,3c0,1.6-1.3,3-3,3ZM34.4,34.4h-5.1v-8c0-1.9,0-4.4-2.7-4.4s-3.1,2.1-3.1,4.2v8.2h-5.1v-16.5h4.9v2.3h0c.7-1.3,2.4-2.7,4.9-2.7,5.2,0,6.2,3.4,6.2,7.9v9Z"/>
  </g>
</svg>