<?xml version="1.0" encoding="UTF-8"?>
<svg id="_圖層_1" data-name="圖層_1" xmlns="http://www.w3.org/2000/svg" version="1.1" viewBox="0 0 44 44">
  <!-- Generator: Adobe Illustrator 29.5.0, SVG Export Plug-In . SVG Version: 2.1.0 Build 137)  -->
  <defs>
    <style>
      .st0 {
        fill: #fff;
      }

      .st1 {
        fill: #e60023;
      }
    </style>
  </defs>
  <path id="Rectangle_1" class="st0" d="M1,23C1,11.4,10.4,2,22,2s21,9.4,21,21-9.4,21-21,21S1,34.6,1,23Z"/>
  <path id="Vector" class="st1" d="M0,22c0,9.4,5.9,17.4,14.2,20.6-.2-1.7-.4-4.6,0-6.5.4-1.7,2.6-10.9,2.6-10.9,0,0-.7-1.3-.7-3.3,0-3,1.8-5.3,4-5.3s2.8,1.4,2.8,3.1-1.2,4.7-1.8,7.3c-.5,2.2,1.1,4,3.2,4,3.9,0,6.9-4.1,6.9-10s-3.8-8.9-9.2-8.9-9.9,4.7-9.9,9.5.7,3.9,1.6,5c.1.1.2.3.2.4,0,0,0,.1,0,.2-.2.7-.5,2.2-.6,2.5,0,.4-.3.5-.7.3-2.7-1.3-4.4-5.3-4.4-8.5,0-6.9,5-13.3,14.5-13.3s13.5,5.4,13.5,12.6-4.8,13.6-11.4,13.6-4.3-1.2-5-2.5c0,0-1.1,4.2-1.4,5.2-.5,2-2,4.5-2.8,5.9,2,.6,4.2,1,6.5,1,12.1,0,22-9.9,22-22S34.1,0,22,0,0,9.9,0,22Z"/>
</svg>