<?xml version="1.0" encoding="UTF-8"?>
<svg id="_圖層_1" data-name="圖層_1" xmlns="http://www.w3.org/2000/svg" xmlns:xlink="http://www.w3.org/1999/xlink" version="1.1" viewBox="0 0 44 44">
  <!-- Generator: Adobe Illustrator 29.5.0, SVG Export Plug-In . SVG Version: 2.1.0 Build 137)  -->
  <defs>
    <style>
      .st0 {
        mask: url(#mask);
      }

      .st1 {
        fill: #ea4640;
      }

      .st2 {
        fill: #fff;
      }
    </style>
    <mask id="mask" x="-2.2" y="-2.2" width="48.4" height="48.4" maskUnits="userSpaceOnUse">
      <g id="mask0_11857_4041">
        <g id="SVGID">
          <path id="Vector" class="st2" d="M22,44C9.9,44,0,34.1,0,22S9.9,0,22,0s22,9.9,22,22-9.9,22-22,22Z"/>
        </g>
      </g>
    </mask>
  </defs>
  <g class="st0">
    <g id="Group_2">
      <path id="Vector_2" class="st1" d="M46.2-2.2H-2.2v48.4h48.4V-2.2Z"/>
      <g id="Group_3">
        <path id="Vector_3" class="st2" d="M22.3,16.6c1.5,0,2.9,1.3,2.9,2.8,0,1.5-1.3,2.7-2.8,2.7h-3.4v-2.4c0-1.8,1.4-3.2,3.2-3.2h.2Z"/>
        <path id="Vector_4" class="st2" d="M23.2,6.7c7.7,0,13.8,6.1,13.2,13.8-.5,6.5-5.8,11-12.4,11.3-.7,3.5-4.4,5.6-7.9,5.6s-8.5-3.6-8.5-8.3v-8.9c0-7.7,6.2-13.6,13.9-13.6h1.8ZM31,19.4c0-2.1-.8-4-2.2-5.4-1.4-1.4-3.3-2.2-5.4-2.2h-2c-4.6,0-8.3,3.7-8.3,8.3v8.9c0,1.7,1.4,3,3,3s1.6-.4,2.2-.9c.6-.6.9-1.3.9-2.2v-2.1h4.3c4.2,0,7.6-3.4,7.6-7.6Z"/>
      </g>
    </g>
  </g>
</svg>