<?xml version="1.0" encoding="UTF-8"?>
<svg id="_圖層_1" data-name="圖層_1" xmlns="http://www.w3.org/2000/svg" xmlns:xlink="http://www.w3.org/1999/xlink" version="1.1" viewBox="0 0 44 44">
  <!-- Generator: Adobe Illustrator 29.5.0, SVG Export Plug-In . SVG Version: 2.1.0 Build 137)  -->
  <defs>
    <style>
      .st0 {
        fill: #fff;
      }

      .st1 {
        fill: url(#_未命名漸層_7);
      }
    </style>
    <linearGradient id="_未命名漸層_7" data-name="未命名漸層 7" x1="22" y1="44.2" x2="22" y2=".2" gradientUnits="userSpaceOnUse">
      <stop offset="0" stop-color="#832bc1"/>
      <stop offset="1" stop-color="#f452ff"/>
    </linearGradient>
  </defs>
  <path id="Rectangle_2" class="st1" d="M0,22C0,9.8,9.8,0,22,0s22,9.8,22,22-9.8,22-22,22S0,34.2,0,22Z"/>
  <g id="Group">
    <path class="st0" d="M25.8,26.7c0-.5-.2-.9-.6-1.3-.7-.7-1.8-1.1-3.2-1.1s-2.5.4-3.2,1.1c-.3.4-.5.7-.6,1.3-.1,1,0,1.9,0,3.3.1,1.3.3,3.2.6,5,.2,1.3.4,2,.5,2.5.2.8,1.1,1.5,2.6,1.5s2.3-.7,2.6-1.5c.1-.5.3-1.2.5-2.5.3-1.8.5-3.6.6-5,.1-1.4.2-2.3,0-3.3Z"/>
    <path class="st0" d="M25.6,19.2c0,2-1.6,3.6-3.6,3.6s-3.6-1.6-3.6-3.6,1.6-3.6,3.6-3.6,3.6,1.6,3.6,3.6Z"/>
    <path class="st0" d="M21.9,5c-8.4,0-15.3,6.9-15.4,15.3,0,6.8,4.3,12.7,10.4,14.8.1,0,.3,0,.3-.2,0-.5-.2-1.1-.2-1.6,0-.2-.1-.3-.3-.4-4.8-2.1-8.2-6.9-8.1-12.5,0-7.3,6.1-13.3,13.4-13.4,7.5,0,13.6,6,13.6,13.5s-3.3,10.3-8.1,12.4c-.2,0-.3.2-.3.4,0,.5-.1,1.1-.2,1.6,0,.2.1.3.3.2,6-2.1,10.4-7.9,10.4-14.6,0-8.5-7-15.5-15.5-15.5Z"/>
    <path class="st0" d="M21.6,10.1c-5.5.2-9.9,4.7-10,10.2,0,3.6,1.8,6.8,4.5,8.7.1,0,.3,0,.3-.2,0-.6,0-1.2,0-1.8,0-.2,0-.4-.2-.5-1.7-1.6-2.7-3.8-2.7-6.3.1-4.4,3.7-8,8.1-8.2,4.8-.2,8.7,3.7,8.7,8.4s-1,4.6-2.7,6.1c-.1.1-.2.3-.2.5,0,.6,0,1.1,0,1.8,0,.2.2.3.3.2,2.7-1.9,4.5-5,4.5-8.6,0-5.8-4.9-10.6-10.8-10.3Z"/>
  </g>
</svg>