<?xml version="1.0" encoding="UTF-8"?>
<svg id="_圖層_1" data-name="圖層_1" xmlns="http://www.w3.org/2000/svg" version="1.1" viewBox="0 0 44 44">
  <!-- Generator: Adobe Illustrator 29.5.0, SVG Export Plug-In . SVG Version: 2.1.0 Build 137)  -->
  <defs>
    <style>
      .st0 {
        fill: #ff8e06;
      }

      .st1 {
        fill: #fff;
      }
    </style>
  </defs>
  <path class="st0" d="M22,44C9.9,44,0,34.1,0,22S9.9,0,22,0s22,9.9,22,22-9.8,22-22,22Z"/>
  <path class="st1" d="M30.2,31h3.7c0-10.7-8.7-19.5-19.5-19.5v3.7c8.7,0,15.7,7.1,15.7,15.7Z"/>
  <path class="st1" d="M17.1,31c1.4,0,2.6-1.2,2.6-2.6s-1.2-2.6-2.6-2.6-2.6,1.2-2.6,2.6,1.2,2.6,2.6,2.6Z"/>
  <path class="st1" d="M23.6,31h3.7c0-7.1-5.8-12.9-12.8-12.9v3.7c2.4,0,4.7.9,6.4,2.7,1.7,1.7,2.7,4,2.7,6.4Z"/>
</svg>