<?xml version="1.0" encoding="UTF-8"?>
<svg id="_圖層_1" data-name="圖層_1" xmlns="http://www.w3.org/2000/svg" version="1.1" viewBox="0 0 44 44">
  <!-- Generator: Adobe Illustrator 29.5.0, SVG Export Plug-In . SVG Version: 2.1.0 Build 137)  -->
  <defs>
    <style>
      .st0 {
        fill-rule: evenodd;
      }

      .st1 {
        fill: #ffe812;
      }
    </style>
  </defs>
  <circle class="st1" cx="22" cy="22" r="22"/>
  <g>
    <polygon class="st0" points="17.5 22 19.3 22 19.9 21.9 18.4 19.4 17.5 22"/>
    <path class="st0" d="M22,8.2c-8.8,0-16,5.5-16,12.4s3,8.3,7.5,10.5c-.2.8-1.6,5.3-1.6,5.7,0,0,0,.3.1.4.2.1.4,0,.4,0,.5,0,5.8-3.7,6.8-4.4.9.1,1.9.2,2.8.2,8.8,0,16-5.5,16-12.4s-7.2-12.4-16-12.4ZM14,24.3c0,.5-.4.9-.9.9s-.9-.4-.9-.9v-5.4h-1.4c-.5,0-.9-.4-.9-.9s.4-.9.9-.9h4.6c.5,0,.9.4.9.9s-.4.9-.9.9h-1.4v5.4ZM21.5,25.1c-.2,0-.4.1-.6.1-.4,0-.7-.2-.7-.4l-.4-1.2h-2.7l-.4,1.2c0,.2-.4.4-.7.4s-.4,0-.6-.1c-.2-.1-.5-.4-.2-1.3l2.1-5.7c.1-.4.6-.9,1.2-.9.6,0,1,.5,1.2.9l2.1,5.7c.3.9,0,1.2-.2,1.3ZM26,25.1h-2.9c-.5,0-.9-.4-.9-.8v-6.1c0-.5.4-.9.9-.9s.9.4.9.9v5.3h1.9c.5,0,.9.4.9.8s-.4.8-.9.8ZM33,24.4c0,.2-.2.5-.3.6-.2.1-.3.2-.5.2h0c-.3,0-.5-.1-.7-.4l-2.1-2.8-.3.3v2c0,.5-.4.9-.9.9s-.9-.4-.9-.9v-6.2c0-.5.4-.9.9-.9s.9.4.9.9v1.9l2.5-2.5c.1-.1.3-.2.5-.2s.4,0,.6.3c.2.2.3.4.3.6,0,.2,0,.4-.2.5l-2,2.1,2.2,2.9c.1.2.2.3.2.5s0,0,0,.1Z"/>
  </g>
</svg>