<?xml version="1.0" encoding="UTF-8"?>
<svg id="_圖層_1" data-name="圖層_1" xmlns="http://www.w3.org/2000/svg" xmlns:xlink="http://www.w3.org/1999/xlink" version="1.1" viewBox="0 0 44 44">
  <!-- Generator: Adobe Illustrator 29.5.0, SVG Export Plug-In . SVG Version: 2.1.0 Build 137)  -->
  <defs>
    <style>
      .st0 {
        fill: #fff;
        fill-rule: evenodd;
      }

      .st1 {
        fill: url(#_未命名漸層);
      }
    </style>
    <linearGradient id="_未命名漸層" data-name="未命名漸層" x1="22" y1="45.7" x2="22" y2="2" gradientTransform="translate(0 46) scale(1 -1)" gradientUnits="userSpaceOnUse">
      <stop offset="0" stop-color="#2aabee"/>
      <stop offset="1" stop-color="#229ed9"/>
    </linearGradient>
  </defs>
  <path id="Vector" class="st1" d="M22,44c12.2,0,22-9.8,22-22S34.2,0,22,0,0,9.8,0,22s9.8,22,22,22Z"/>
  <path id="Vector_2" class="st0" d="M10,21.8c6.4-2.8,10.7-4.6,12.8-5.5,6.1-2.5,7.4-3,8.2-3,.2,0,.6,0,.9.3.2.2.3.4.3.6,0,.2,0,.6,0,.9-.3,3.5-1.8,11.9-2.5,15.8-.3,1.6-.9,2.2-1.5,2.3-1.3.1-2.2-.8-3.5-1.7-1.9-1.3-3-2.1-4.9-3.3-2.2-1.4-.8-2.2.5-3.5.3-.3,6-5.5,6.1-5.9,0,0,0-.3-.1-.4-.1-.1-.3,0-.5,0-.2,0-3.3,2.1-9.3,6.1-.9.6-1.7.9-2.4.9-.8,0-2.3-.4-3.4-.8-1.4-.4-2.5-.7-2.4-1.4,0-.4.6-.8,1.6-1.2Z"/>
</svg>