<?xml version="1.0" encoding="UTF-8"?>
<svg id="_圖層_1" data-name="圖層_1" xmlns="http://www.w3.org/2000/svg" version="1.1" viewBox="0 0 44 44">
  <!-- Generator: Adobe Illustrator 29.5.0, SVG Export Plug-In . SVG Version: 2.1.0 Build 137)  -->
  <defs>
    <style>
      .st0 {
        fill: #fff;
      }
    </style>
  </defs>
  <path id="Rectangle_2" d="M0,22C0,9.8,9.8,0,22,0s22,9.8,22,22-9.8,22-22,22S0,34.2,0,22Z"/>
  <path id="Vector" class="st0" d="M29,20.9c-.1,0-.3-.1-.4-.2-.2-4.2-2.5-6.5-6.3-6.6-2.2,0-4.2.9-5.4,2.7l2.1,1.4c.9-1.3,2.2-1.6,3.2-1.6h0c1.3,0,2.2.4,2.8,1.1.4.5.7,1.2.9,2.1-1.1-.2-2.3-.2-3.6-.2-3.6.2-6,2.3-5.8,5.3,0,1.5.8,2.8,2.1,3.6,1.1.7,2.5,1.1,3.9,1,1.9-.1,3.4-.8,4.4-2.1.8-1,1.3-2.3,1.5-3.9.9.5,1.6,1.3,1.9,2.1.6,1.5.7,3.9-1.3,5.8-1.7,1.7-3.8,2.5-6.9,2.5-3.5,0-6.1-1.1-7.8-3.3-1.6-2-2.4-5-2.5-8.7,0-3.8.9-6.7,2.5-8.7,1.7-2.2,4.3-3.3,7.8-3.3,3.5,0,6.2,1.1,7.9,3.3.9,1.1,1.5,2.4,2,4l2.5-.7c-.5-1.9-1.3-3.6-2.5-5-2.3-2.8-5.6-4.2-9.9-4.3h0c-4.3,0-7.6,1.5-9.8,4.3-2,2.5-3,6-3,10.3h0c0,4.4,1,7.9,3,10.3,2.2,2.8,5.5,4.2,9.8,4.3h0c3.8,0,6.5-1,8.7-3.2,2.9-2.9,2.8-6.5,1.8-8.7-.7-1.6-2-2.9-3.8-3.7ZM22.4,27.1c-1.6,0-3.2-.6-3.3-2.2,0-1.1.8-2.4,3.4-2.5.3,0,.6,0,.9,0,.9,0,1.8,0,2.6.3-.3,3.8-2.1,4.4-3.6,4.5Z"/>
</svg>