<?xml version="1.0" encoding="UTF-8"?>
<svg id="_圖層_1" data-name="圖層_1" xmlns="http://www.w3.org/2000/svg" version="1.1" viewBox="0 0 44 44">
  <!-- Generator: Adobe Illustrator 29.5.0, SVG Export Plug-In . SVG Version: 2.1.0 Build 137)  -->
  <defs>
    <style>
      .st0 {
        fill: #fff;
        fill-rule: evenodd;
      }

      .st1 {
        fill: #24d366;
      }
    </style>
  </defs>
  <path id="Rectangle_2" class="st1" d="M0,22C0,9.8,9.8,0,22,0s22,9.8,22,22-9.8,22-22,22S0,34.2,0,22Z"/>
  <path id="Vector" class="st0" d="M31.2,12.8c-1.2-1.2-2.6-2.2-4.2-2.8-1.6-.6-3.3-1-5-1-7.1,0-12.9,5.8-12.9,12.9,0,2.3.6,4.5,1.7,6.4l-1.8,6.7,6.9-1.8c1.9,1,4,1.6,6.2,1.6,2.6,0,5.1-.8,7.2-2.2,2.1-1.4,3.8-3.4,4.8-5.8,1-2.4,1.2-4.9.7-7.4-.5-2.5-1.7-4.8-3.5-6.6h0ZM22.1,32.6c-1.9,0-3.8-.5-5.5-1.5l-.4-.2-4.1,1.1,1.1-4-.3-.4c-1.4-2.2-1.9-4.9-1.5-7.5.4-2.6,1.8-4.9,3.9-6.6,2.1-1.6,4.7-2.5,7.3-2.3,2.6.2,5.1,1.3,7,3.1,1.5,1.5,2.5,3.4,2.9,5.5.4,2.1.2,4.2-.6,6.2-.8,2-2.2,3.6-4,4.8-1.8,1.2-3.9,1.8-6,1.8h0ZM28,24.6c-.3-.2-1.9-.9-2.2-1-.3-.1-.5-.2-.7.2-.2.3-.8,1-1,1.3-.2.2-.4.2-.7,0-.3-.2-1.4-.5-2.6-1.6-.7-.7-1.3-1.4-1.8-2.2-.2-.3,0-.5.1-.7.2-.2.3-.4.5-.6.1-.2.2-.3.3-.5,0,0,0-.2,0-.3,0,0,0-.2,0-.3,0-.2-.7-1.7-1-2.4s-.5-.5-.7-.6c-.2,0-.4,0-.6,0-.2,0-.3,0-.5.1-.1,0-.3.2-.4.3-.3.3-1.1,1.1-1.1,2.7s1.2,3.1,1.3,3.3c.2.2,2.3,3.5,5.5,4.9.8.3,1.4.5,1.8.7.7.2,1.4.2,2,.1.6,0,1.9-.8,2.2-1.5.3-.8.3-1.4.2-1.5,0-.1-.3-.2-.6-.4h0Z"/>
</svg>