<?xml version="1.0" encoding="UTF-8"?>
<svg id="_圖層_1" data-name="圖層_1" xmlns="http://www.w3.org/2000/svg" version="1.1" viewBox="0 0 44 44">
  <!-- Generator: Adobe Illustrator 29.5.0, SVG Export Plug-In . SVG Version: 2.1.0 Build 137)  -->
  <defs>
    <style>
      .st0 {
        fill: #fff;
      }

      .st1 {
        fill: #c01e20;
      }
    </style>
  </defs>
  <path id="Rectangle_2" class="st1" d="M0,22C0,9.8,9.8,0,22,0s22,9.8,22,22-9.8,22-22,22S0,34.2,0,22Z"/>
  <path id="Vector" class="st0" d="M35.5,16.5s-.3-1.9-1.1-2.7c-1-1.1-2.2-1.1-2.8-1.2-3.8-.3-9.6-.3-9.6-.3h0s-5.8,0-9.6.3c-.5,0-1.7,0-2.8,1.2-.8.8-1.1,2.7-1.1,2.7,0,0-.3,2.2-.3,4.5v2.1c0,2.2.3,4.5.3,4.5,0,0,.3,1.9,1.1,2.7,1,1.1,2.4,1.1,3,1.2,2.2.2,9.4.3,9.4.3,0,0,5.8,0,9.6-.3.5,0,1.7,0,2.8-1.2.8-.8,1.1-2.7,1.1-2.7,0,0,.3-2.2.3-4.5v-2.1c0-2.2-.3-4.5-.3-4.5ZM18.8,25.9v-8.4s8.1,4.2,8.1,4.2l-8.1,4.2Z"/>
</svg>