<?xml version="1.0" encoding="UTF-8"?>
<svg id="_圖層_1" data-name="圖層_1" xmlns="http://www.w3.org/2000/svg" xmlns:xlink="http://www.w3.org/1999/xlink" version="1.1" viewBox="0 0 20 20">
  <defs>
    <style>
      .st0 {
        mask: url(#mask);
      }

      .st1 {
        fill: #d9d9d9;
      }
    </style>
    <mask id="mask" x=".2" y=".2" width="20" height="20" maskUnits="userSpaceOnUse">
      <g id="mask0_12208_1517">
        <rect id="Bounding_box" class="st1" x=".2" y=".2" width="20" height="20"/>
      </g>
    </mask>
  </defs>
  <g id="search">
    <g class="st0">
      <path id="search_check_2" d="M8.5,13.5c1.4,0,2.6-.5,3.5-1.5,1-1,1.5-2.2,1.5-3.5s-.5-2.6-1.5-3.5c-1-1-2.2-1.5-3.5-1.5s-2.6.5-3.5,1.5c-1,1-1.5,2.2-1.5,3.5s.5,2.6,1.5,3.5,2.2,1.5,3.5,1.5ZM8.5,15.2c-1.9,0-3.4-.6-4.7-1.9s-1.9-2.9-1.9-4.7.6-3.4,1.9-4.7c1.3-1.3,2.9-1.9,4.7-1.9s3.4.6,4.7,1.9c1.3,1.3,1.9,2.9,1.9,4.7s-.1,1.5-.4,2.2c-.2.7-.6,1.3-1,1.9l4.1,4.1c.2.2.2.4.2.6s0,.4-.2.6c-.2.2-.4.2-.6.2s-.4,0-.6-.2l-4.1-4.1c-.6.4-1.2.8-1.9,1-.7.2-1.4.4-2.2.4Z"/>
    </g>
  </g>
</svg>