<svg width="51" height="50" viewBox="0 0 51 50" fill="none" xmlns="http://www.w3.org/2000/svg">
<path d="M42.3108 21.7187C41.1961 21.7187 40.5592 21.0937 40.5592 20V16.5625C40.5592 11.7187 36.5783 7.81249 31.642 7.81249H28.1388C27.0241 7.81249 26.3872 7.1875 26.3872 6.09375C26.3872 5 27.0241 4.375 28.1388 4.375H31.642C38.4891 4.375 44.0624 9.84374 44.0624 16.5625V20C44.0624 21.0937 43.4254 21.7187 42.3108 21.7187Z" fill="white"/>
<path d="M28.1386 11.2502C27.6609 11.2502 27.1832 11.094 26.8647 10.7815L23.3615 7.34398C22.7246 6.71899 22.7246 5.62524 23.3615 4.84399L26.8647 1.40649C27.5016 0.781494 28.6163 0.781494 29.4125 1.40649C30.0494 2.03149 30.0494 3.12524 29.4125 3.90649L27.1832 6.09399L29.4125 8.28148C30.0494 8.90648 30.0494 10.0002 29.4125 10.7815C29.094 11.094 28.6163 11.2502 28.1386 11.2502Z" fill="white"/>
<path d="M20.9726 46.0935H17.4694C12.5331 46.0935 8.55225 42.3435 8.55225 37.4997V30.4685C8.55225 29.3748 9.18919 28.7498 10.3038 28.7498C11.4185 28.7498 12.0554 29.3748 12.0554 30.4685V37.4997C12.0554 40.4685 14.2847 42.656 17.3102 42.656H20.8134C21.928 42.656 22.565 43.281 22.565 44.3747C22.8835 45.4685 22.0873 46.0935 20.9726 46.0935Z" fill="white"/>
<path d="M20.9733 49.6875C19.8586 49.6875 19.2217 49.0625 19.2217 47.9687C19.2217 47.5 19.3809 47.0312 19.6994 46.7187L21.9287 44.5312L19.8586 42.1875C19.2217 41.5625 19.2217 40.4687 19.8586 39.6875C20.4956 39.0625 21.6102 39.0625 22.4064 39.6875L25.9096 43.125C26.5465 43.75 26.5465 44.8437 25.9096 45.625L22.4064 49.0625C21.9287 49.5312 21.6102 49.6875 20.9733 49.6875Z" fill="white"/>
<path d="M10.7819 11.5625C7.59714 11.5625 4.89014 8.90624 4.89014 5.78124C4.89014 2.65625 7.59714 0 10.7819 0C13.9666 0 16.6736 2.65625 16.6736 5.78124C16.6736 8.90624 13.9666 11.5625 10.7819 11.5625ZM10.7819 3.43749C9.50797 3.43749 8.55256 4.53124 8.55256 5.62499C8.55256 6.71874 9.66721 7.81249 10.7819 7.81249C11.8965 7.81249 13.0112 6.71874 13.0112 5.62499C13.0112 4.53124 12.0557 3.43749 10.7819 3.43749Z" fill="white"/>
<path d="M20.4952 25.4687H0.75V23.75C0.75 21.7187 0.75 20.7812 0.909236 19.8437C1.54618 17.1875 3.93471 15.1562 6.64172 14.375C7.75637 14.0625 8.55255 14.0625 10.7818 14.0625C13.0111 14.0625 13.8073 14.0625 14.7627 14.2188C17.4697 14.8437 19.5398 17.0312 20.336 19.6875C20.4952 20.625 20.4952 21.7187 20.4952 23.75V25.4687ZM4.41242 21.875H16.992C16.992 21.4062 16.992 20.7812 16.8328 20.4687C16.5143 19.0625 15.2404 17.8125 13.8073 17.5C13.3296 17.3437 12.3742 17.3437 10.6226 17.3437C8.87102 17.3437 7.91561 17.3437 7.4379 17.5C6.00478 17.8125 4.57166 19.0625 4.25318 20.4687C4.41242 20.9375 4.41242 21.25 4.41242 21.875Z" fill="white"/>
<path d="M40.8776 36.25C37.6928 36.25 34.9858 33.5937 34.9858 30.4687C34.9858 27.3437 37.6928 24.6875 40.8776 24.6875C44.0623 24.6875 46.7693 27.3437 46.7693 30.4687C46.7693 33.5937 44.0623 36.25 40.8776 36.25ZM40.8776 28.2812C39.6037 28.2812 38.6483 29.375 38.6483 30.4687C38.6483 31.7187 39.7629 32.6562 40.8776 32.6562C41.9922 32.6562 43.1069 31.5625 43.1069 30.4687C43.2661 29.2187 42.1514 28.2812 40.8776 28.2812Z" fill="white"/>
<path d="M50.7497 50H30.8452V48.2812C30.8452 46.25 30.8452 45.3125 31.0045 44.375C31.6414 41.7187 33.8707 39.6875 36.5777 38.9063H36.7369C38.0108 38.75 38.9662 38.75 41.0363 38.75C43.1064 38.75 44.0618 38.75 45.0172 38.9063C47.7242 39.5312 49.7943 41.7187 50.5904 44.375C50.7497 45.3125 50.7497 46.4062 50.7497 48.4375V50ZM34.3484 46.5625H47.0873C47.0873 46.0937 47.0873 45.4687 46.928 45.1562C46.6095 43.75 45.3357 42.5 43.9025 42.1875C43.4248 42.0312 42.4694 42.0312 40.7178 42.0312C39.1255 42.0312 38.0108 42.0312 37.2146 42.1875C35.7815 42.5 34.5076 43.75 34.3484 45.1562C34.3484 45.4687 34.3484 45.7812 34.3484 46.5625Z" fill="white"/>
</svg>
