<svg width="45" height="50" viewBox="0 0 45 50" fill="none" xmlns="http://www.w3.org/2000/svg">
<path d="M23.8125 21.875H20.6875C18.0312 21.875 16 23.9062 16 26.5625V45.3125C16 47.9687 18.0312 50 20.6875 50H23.8125C26.4687 50 28.5 47.9687 28.5 45.3125V42.1875C28.5 41.25 27.875 40.625 26.9375 40.625C26 40.625 25.375 41.25 25.375 42.1875V45.3125C25.375 46.25 24.75 46.875 23.8125 46.875H20.6875C19.75 46.875 19.125 46.25 19.125 45.3125V26.5625C19.125 25.625 19.75 25 20.6875 25H23.8125C24.75 25 25.375 25.625 25.375 26.5625V35.9375C25.375 36.875 26 37.5 26.9375 37.5C27.875 37.5 28.5 36.875 28.5 35.9375V26.5625C28.5 23.9062 26.4687 21.875 23.8125 21.875Z" fill="white"/>
<path d="M8.1875 31.25H5.0625C2.40625 31.25 0.375 33.2812 0.375 35.9375V45.3125C0.375 47.9687 2.40625 50 5.0625 50H8.1875C10.8437 50 12.875 47.9687 12.875 45.3125V35.9375C12.875 33.2812 10.8437 31.25 8.1875 31.25ZM9.75 45.3125C9.75 46.25 9.125 46.875 8.1875 46.875H5.0625C4.125 46.875 3.5 46.25 3.5 45.3125V35.9375C3.5 35 4.125 34.375 5.0625 34.375H8.1875C9.125 34.375 9.75 35 9.75 35.9375V45.3125Z" fill="white"/>
<path d="M42.5625 28.125C43.5 28.125 44.125 27.5 44.125 26.5625V20.3125C44.125 17.6562 42.0937 15.625 39.4375 15.625H36.3125C33.6562 15.625 31.625 17.6562 31.625 20.3125V45.3125C31.625 47.9687 33.6562 50 36.3125 50H39.4375C42.0937 50 44.125 47.9687 44.125 45.3125V32.8125C44.125 31.875 43.5 31.25 42.5625 31.25C41.625 31.25 41 31.875 41 32.8125V45.3125C41 46.25 40.375 46.875 39.4375 46.875H36.3125C35.375 46.875 34.75 46.25 34.75 45.3125V20.3125C34.75 19.375 35.375 18.75 36.3125 18.75H39.4375C40.375 18.75 41 19.375 41 20.3125V26.5625C41 27.5 41.625 28.125 42.5625 28.125Z" fill="white"/>
<path d="M6.625 25C9.28125 25 11.3125 22.9687 11.3125 20.3125C11.3125 20 11.3125 19.6875 11.1562 19.375L19.2812 14.5312C20.0625 15.1562 21.1562 15.625 22.25 15.625C24.9062 15.625 26.9375 13.5937 26.9375 10.9375V10.7812L34.4375 7.8125C35.2187 8.75 36.4687 9.375 37.875 9.375C40.5312 9.375 42.5625 7.34375 42.5625 4.6875C42.5625 2.03125 40.5312 0 37.875 0C35.2187 0 33.1875 2.03125 33.1875 4.6875V4.84375L25.6875 7.8125C24.9062 6.875 23.6562 6.25 22.25 6.25C19.5937 6.25 17.5625 8.28125 17.5625 10.9375C17.5625 11.25 17.5625 11.5625 17.7187 11.875L9.59375 16.7187C8.8125 16.0937 7.71875 15.625 6.625 15.625C3.96875 15.625 1.9375 17.6562 1.9375 20.3125C1.9375 22.9687 3.96875 25 6.625 25ZM37.875 3.125C38.8125 3.125 39.4375 3.75 39.4375 4.6875C39.4375 5.625 38.8125 6.25 37.875 6.25C37.25 6.25 36.7812 5.9375 36.4687 5.3125V5.15625C36.3125 5 36.3125 4.84375 36.3125 4.6875C36.3125 3.75 36.9375 3.125 37.875 3.125ZM22.25 9.375C22.875 9.375 23.5 9.84375 23.6562 10.3125C23.8125 10.625 23.8125 10.7812 23.8125 10.9375C23.8125 11.875 23.1875 12.5 22.25 12.5C21.3125 12.5 20.6875 11.875 20.6875 10.9375C20.6875 10 21.3125 9.375 22.25 9.375ZM6.625 18.75C7.5625 18.75 8.1875 19.375 8.1875 20.3125C8.1875 21.25 7.5625 21.875 6.625 21.875C5.6875 21.875 5.0625 21.25 5.0625 20.3125C5.0625 19.375 5.6875 18.75 6.625 18.75Z" fill="white"/>
</svg>
