<svg width="37" height="50" viewBox="0 0 37 50" fill="none" xmlns="http://www.w3.org/2000/svg">
<path d="M27.6149 50H9.38513C8.25509 50 7.33615 49.075 7.33615 47.9375C7.33615 46.8 8.25509 45.875 9.38513 45.875H16.451V43.0062C12.4214 42.55 8.68351 40.7438 5.77147 37.8125C2.36892 34.3875 0.5 29.8375 0.5 25V20.4125C0.5 19.275 1.41894 18.35 2.54898 18.35C3.67903 18.35 4.59796 19.275 4.59796 20.4125V25C4.59796 32.7125 10.8318 38.9938 18.5 38.9938C26.1619 38.9938 32.402 32.7188 32.402 25V20.4125C32.402 19.275 33.321 18.35 34.451 18.35C35.5811 18.35 36.5 19.275 36.5 20.4125V25C36.5 29.8375 34.6249 34.3875 31.2285 37.8125C28.3165 40.7438 24.5849 42.5437 20.549 43.0062V45.875H27.6149C28.7449 45.875 29.6638 46.8 29.6638 47.9375C29.6638 49.075 28.7449 50 27.6149 50ZM18.5 33.9437C13.6011 33.9437 9.61487 29.9312 9.61487 25V8.94375C9.61487 4.0125 13.6011 0 18.5 0C23.3989 0 27.3851 4.0125 27.3851 8.94375V25C27.3851 29.9312 23.3989 33.9437 18.5 33.9437ZM18.5 4.13125C15.8612 4.13125 13.7128 6.29375 13.7128 8.95V25C13.7128 27.6562 15.8612 29.8188 18.5 29.8188C21.1388 29.8188 23.2872 27.6562 23.2872 25V22.475H20.7787C19.6487 22.475 18.7297 21.55 18.7297 20.4125C18.7297 19.275 19.6487 18.35 20.7787 18.35H23.2872V13.3062H20.7787C19.6487 13.3062 18.7297 12.3812 18.7297 11.2437C18.7297 10.1062 19.6487 9.18125 20.7787 9.18125H23.2872V8.95C23.2872 6.2875 21.1388 4.13125 18.5 4.13125Z" fill="white"/>
</svg>
