<svg width="36" height="50" viewBox="0 0 36 50" fill="none" xmlns="http://www.w3.org/2000/svg">
<path d="M18 10.9375H13.3125C12.375 10.9375 11.75 10.3125 11.75 9.375C11.75 8.4375 12.375 7.8125 13.3125 7.8125H18C18.9375 7.8125 19.5625 8.4375 19.5625 9.375C19.5625 10.3125 18.9375 10.9375 18 10.9375Z" fill="white"/>
<path d="M18 18.75H13.3125C12.375 18.75 11.75 18.125 11.75 17.1875C11.75 16.25 12.375 15.625 13.3125 15.625H18C18.9375 15.625 19.5625 16.25 19.5625 17.1875C19.5625 18.125 18.9375 18.75 18 18.75Z" fill="white"/>
<path d="M18 26.5625H13.3125C12.375 26.5625 11.75 25.9375 11.75 25C11.75 24.0625 12.375 23.4375 13.3125 23.4375H18C18.9375 23.4375 19.5625 24.0625 19.5625 25C19.5625 25.9375 18.9375 26.5625 18 26.5625Z" fill="white"/>
<path d="M18 34.375H13.3125C12.375 34.375 11.75 33.75 11.75 32.8125C11.75 31.875 12.375 31.25 13.3125 31.25H18C18.9375 31.25 19.5625 31.875 19.5625 32.8125C19.5625 33.75 18.9375 34.375 18 34.375Z" fill="white"/>
<path d="M18 42.1875H13.3125C12.375 42.1875 11.75 41.5625 11.75 40.625C11.75 39.6875 12.375 39.0625 13.3125 39.0625H18C18.9375 39.0625 19.5625 39.6875 19.5625 40.625C19.5625 41.5625 18.9375 42.1875 18 42.1875Z" fill="white"/>
<path d="M14.875 50H5.50001C2.84375 50 0.8125 47.9688 0.8125 45.3125V39.0625C0.8125 38.125 1.4375 37.5 2.375 37.5C3.3125 37.5 3.9375 38.125 3.9375 39.0625V45.3125C3.9375 46.25 4.56251 46.875 5.50001 46.875H14.875C15.8125 46.875 16.4375 46.25 16.4375 45.3125V4.6875C16.4375 3.75 15.8125 3.125 14.875 3.125H5.50001C4.56251 3.125 3.9375 3.75 3.9375 4.6875V32.8125C3.9375 33.75 3.3125 34.375 2.375 34.375C1.4375 34.375 0.8125 33.75 0.8125 32.8125V4.6875C0.8125 2.03125 2.84375 0 5.50001 0H14.875C17.5313 0 19.5625 2.03125 19.5625 4.6875V45.3125C19.5625 47.9688 17.5313 50 14.875 50Z" fill="white"/>
<path d="M28.9375 50C28.3125 50 27.8438 49.6875 27.5313 49.2188L22.8438 41.4062C22.6875 41.25 22.6875 40.9375 22.6875 40.625V6.25C22.6875 2.8125 25.5 0 28.9375 0C32.375 0 35.1875 2.8125 35.1875 6.25V9.375C35.1875 10.3125 34.5625 10.9375 33.625 10.9375C32.6875 10.9375 32.0625 10.3125 32.0625 9.375V6.25C32.0625 4.53125 30.6563 3.125 28.9375 3.125C27.2188 3.125 25.8125 4.53125 25.8125 6.25V40.1563L28.9375 45.3125L32.0625 40.1563V15.625C32.0625 14.6875 32.6875 14.0625 33.625 14.0625C34.5625 14.0625 35.1875 14.6875 35.1875 15.625V40.625C35.1875 40.9375 35.1875 41.25 35.0313 41.4062L30.3438 49.2188C30.0313 49.6875 29.5625 50 28.9375 50Z" fill="white"/>
<path d="M33.625 42.1875H24.25C23.3125 42.1875 22.6875 41.5625 22.6875 40.625C22.6875 39.6875 23.3125 39.0625 24.25 39.0625H33.625C34.5625 39.0625 35.1875 39.6875 35.1875 40.625C35.1875 41.5625 34.5625 42.1875 33.625 42.1875Z" fill="white"/>
<path d="M33.625 10.9375H24.25C23.3125 10.9375 22.6875 10.3125 22.6875 9.375C22.6875 8.4375 23.3125 7.8125 24.25 7.8125H33.625C34.5625 7.8125 35.1875 8.4375 35.1875 9.375C35.1875 10.3125 34.5625 10.9375 33.625 10.9375Z" fill="white"/>
</svg>
