<svg width="41" height="41" viewBox="0 0 41 41" fill="none" xmlns="http://www.w3.org/2000/svg">
<mask id="mask0_12564_4668" style="mask-type:alpha" maskUnits="userSpaceOnUse" x="0" y="0" width="41" height="41">
<rect x="0.600098" y="0.5" width="40" height="40" fill="#D9D9D9"/>
</mask>
<g mask="url(#mask0_12564_4668)">
<path d="M13.9336 29.1249V11.8749C13.9336 11.4027 14.1003 11.0069 14.4336 10.6874C14.7669 10.368 15.1558 10.2083 15.6003 10.2083C15.7391 10.2083 15.885 10.2291 16.0378 10.2708C16.1905 10.3124 16.3364 10.3749 16.4753 10.4583L30.0586 19.0833C30.3086 19.2499 30.4961 19.4583 30.6211 19.7083C30.7461 19.9583 30.8086 20.2221 30.8086 20.4999C30.8086 20.7777 30.7461 21.0416 30.6211 21.2916C30.4961 21.5416 30.3086 21.7499 30.0586 21.9166L16.4753 30.5416C16.3364 30.6249 16.1905 30.6874 16.0378 30.7291C15.885 30.7708 15.7391 30.7916 15.6003 30.7916C15.1558 30.7916 14.7669 30.6319 14.4336 30.3124C14.1003 29.993 13.9336 29.5971 13.9336 29.1249Z" fill="white"/>
</g>
</svg>
