<svg width="24" height="24" viewBox="0 0 24 24" fill="none" xmlns="http://www.w3.org/2000/svg">
<mask id="mask0_9720_1618" style="mask-type:alpha" maskUnits="userSpaceOnUse" x="0" y="0" width="24" height="24">
<rect width="24" height="24" fill="#D9D9D9"/>
</mask>
<g mask="url(#mask0_9720_1618)">
<path d="M15.55 12.675L14.15 11.275L16.2 9.22499L14.775 7.79999L12.725 9.84999L11.325 8.44999L16.2 3.57499C16.4 3.37499 16.6208 3.22916 16.8625 3.13749C17.1042 3.04583 17.3583 2.99999 17.625 2.99999C17.8917 2.99999 18.15 3.04999 18.4 3.14999C18.65 3.24999 18.8667 3.39999 19.05 3.59999L20.425 4.99999C20.625 5.18333 20.7708 5.39999 20.8625 5.64999C20.9542 5.89999 21 6.14999 21 6.39999C21 6.66666 20.9542 6.92083 20.8625 7.16249C20.7708 7.40416 20.625 7.62499 20.425 7.82499L15.55 12.675ZM4.99999 19H6.42499L11.3 14.125L10.6 13.4L9.87499 12.7L4.99999 17.575V19ZM19.8 22.6L12.725 15.55L7.24999 21H2.99999V16.775L8.47499 11.3L1.39999 4.19999L2.82499 2.77499L21.225 21.175L19.8 22.6ZM10.6 13.4L9.87499 12.7L11.3 14.125L10.6 13.4Z" fill="#555555"/>
</g>
</svg>
