<svg width="22" height="23" viewBox="0 0 22 23" fill="none" xmlns="http://www.w3.org/2000/svg">
<g id="Icon_W / language">
<mask id="mask0_12312_1247" style="mask-type:alpha" maskUnits="userSpaceOnUse" x="0" y="0" width="22" height="23">
<rect id="Bounding box" y="0.0625" width="22" height="22" fill="#D9D9D9"/>
</mask>
<g mask="url(#mask0_12312_1247)">
<path id="language" d="M10.9997 20.2293C9.7469 20.2293 8.56287 19.9887 7.44759 19.5075C6.33231 19.0262 5.35835 18.3693 4.52572 17.5366C3.69308 16.704 3.03613 15.73 2.55488 14.6147C2.07363 13.4995 1.83301 12.3154 1.83301 11.0627C1.83301 9.79461 2.07363 8.60676 2.55488 7.49912C3.03613 6.39148 3.69308 5.42134 4.52572 4.5887C5.35835 3.75607 6.33231 3.09912 7.44759 2.61787C8.56287 2.13662 9.7469 1.896 10.9997 1.896C12.2677 1.896 13.4556 2.13662 14.5632 2.61787C15.6709 3.09912 16.641 3.75607 17.4736 4.5887C18.3063 5.42134 18.9632 6.39148 19.4445 7.49912C19.9257 8.60676 20.1663 9.79461 20.1663 11.0627C20.1663 12.3154 19.9257 13.4995 19.4445 14.6147C18.9632 15.73 18.3063 16.704 17.4736 17.5366C16.641 18.3693 15.6709 19.0262 14.5632 19.5075C13.4556 19.9887 12.2677 20.2293 10.9997 20.2293ZM10.9997 18.3502C11.3969 17.8002 11.7406 17.2272 12.0309 16.6314C12.3212 16.0356 12.558 15.4016 12.7413 14.7293H9.25801C9.44134 15.4016 9.67815 16.0356 9.96842 16.6314C10.2587 17.2272 10.6025 17.8002 10.9997 18.3502ZM8.61634 17.9835C8.34134 17.4793 8.10072 16.9561 7.89447 16.4137C7.68822 15.8713 7.51634 15.3099 7.37884 14.7293H4.67467C5.11773 15.4932 5.67155 16.1578 6.33613 16.7231C7.00072 17.2884 7.76079 17.7085 8.61634 17.9835ZM13.383 17.9835C14.2386 17.7085 14.9986 17.2884 15.6632 16.7231C16.3278 16.1578 16.8816 15.4932 17.3247 14.7293H14.6205C14.483 15.3099 14.3111 15.8713 14.1049 16.4137C13.8986 16.9561 13.658 17.4793 13.383 17.9835ZM3.89551 12.896H7.01217C6.96634 12.5904 6.93197 12.2887 6.90905 11.9908C6.88613 11.6929 6.87467 11.3835 6.87467 11.0627C6.87467 10.7418 6.88613 10.4325 6.90905 10.1345C6.93197 9.83662 6.96634 9.53488 7.01217 9.22933H3.89551C3.81912 9.53488 3.76183 9.83662 3.72363 10.1345C3.68544 10.4325 3.66634 10.7418 3.66634 11.0627C3.66634 11.3835 3.68544 11.6929 3.72363 11.9908C3.76183 12.2887 3.81912 12.5904 3.89551 12.896ZM8.84551 12.896H13.1538C13.1997 12.5904 13.234 12.2887 13.257 11.9908C13.2799 11.6929 13.2913 11.3835 13.2913 11.0627C13.2913 10.7418 13.2799 10.4325 13.257 10.1345C13.234 9.83662 13.1997 9.53488 13.1538 9.22933H8.84551C8.79967 9.53488 8.7653 9.83662 8.74238 10.1345C8.71947 10.4325 8.70801 10.7418 8.70801 11.0627C8.70801 11.3835 8.71947 11.6929 8.74238 11.9908C8.7653 12.2887 8.79967 12.5904 8.84551 12.896ZM14.9872 12.896H18.1038C18.1802 12.5904 18.2375 12.2887 18.2757 11.9908C18.3139 11.6929 18.333 11.3835 18.333 11.0627C18.333 10.7418 18.3139 10.4325 18.2757 10.1345C18.2375 9.83662 18.1802 9.53488 18.1038 9.22933H14.9872C15.033 9.53488 15.0674 9.83662 15.0903 10.1345C15.1132 10.4325 15.1247 10.7418 15.1247 11.0627C15.1247 11.3835 15.1132 11.6929 15.0903 11.9908C15.0674 12.2887 15.033 12.5904 14.9872 12.896ZM14.6205 7.396H17.3247C16.8816 6.63211 16.3278 5.96752 15.6632 5.40225C14.9986 4.83697 14.2386 4.41683 13.383 4.14183C13.658 4.646 13.8986 5.16926 14.1049 5.71162C14.3111 6.25398 14.483 6.81544 14.6205 7.396ZM9.25801 7.396H12.7413C12.558 6.72377 12.3212 6.08975 12.0309 5.49391C11.7406 4.89808 11.3969 4.32516 10.9997 3.77516C10.6025 4.32516 10.2587 4.89808 9.96842 5.49391C9.67815 6.08975 9.44134 6.72377 9.25801 7.396ZM4.67467 7.396H7.37884C7.51634 6.81544 7.68822 6.25398 7.89447 5.71162C8.10072 5.16926 8.34134 4.646 8.61634 4.14183C7.76079 4.41683 7.00072 4.83697 6.33613 5.40225C5.67155 5.96752 5.11773 6.63211 4.67467 7.396Z" fill="#0156A2"/>
</g>
</g>
</svg>
