<svg width="22" height="22" viewBox="0 0 22 22" fill="none" xmlns="http://www.w3.org/2000/svg">
<g id="Icon_W / language">
<mask id="mask0_12031_192" style="mask-type:alpha" maskUnits="userSpaceOnUse" x="0" y="0" width="22" height="22">
<rect id="Bounding box" width="22" height="22" fill="#555555"/>
</mask>
<g mask="url(#mask0_12031_192)">
<path id="language" d="M11 20.1667C9.74722 20.1667 8.56319 19.926 7.44791 19.4448C6.33263 18.9635 5.35868 18.3066 4.52604 17.474C3.6934 16.6413 3.03645 15.6674 2.5552 14.5521C2.07395 13.4368 1.83333 12.2528 1.83333 11C1.83333 9.73194 2.07395 8.5441 2.5552 7.43646C3.03645 6.32882 3.6934 5.35868 4.52604 4.52604C5.35868 3.6934 6.33263 3.03646 7.44791 2.55521C8.56319 2.07396 9.74722 1.83333 11 1.83333C12.2681 1.83333 13.4559 2.07396 14.5635 2.55521C15.6712 3.03646 16.6413 3.6934 17.474 4.52604C18.3066 5.35868 18.9635 6.32882 19.4448 7.43646C19.926 8.5441 20.1667 9.73194 20.1667 11C20.1667 12.2528 19.926 13.4368 19.4448 14.5521C18.9635 15.6674 18.3066 16.6413 17.474 17.474C16.6413 18.3066 15.6712 18.9635 14.5635 19.4448C13.4559 19.926 12.2681 20.1667 11 20.1667ZM11 18.2875C11.3972 17.7375 11.741 17.1646 12.0312 16.5687C12.3215 15.9729 12.5583 15.3389 12.7417 14.6667H9.25833C9.44166 15.3389 9.67847 15.9729 9.96874 16.5687C10.259 17.1646 10.6028 17.7375 11 18.2875ZM8.61666 17.9208C8.34166 17.4167 8.10104 16.8934 7.89479 16.351C7.68854 15.8087 7.51666 15.2472 7.37916 14.6667H4.67499C5.11805 15.4306 5.67187 16.0951 6.33645 16.6604C7.00104 17.2257 7.76111 17.6458 8.61666 17.9208ZM13.3833 17.9208C14.2389 17.6458 14.999 17.2257 15.6635 16.6604C16.3281 16.0951 16.8819 15.4306 17.325 14.6667H14.6208C14.4833 15.2472 14.3115 15.8087 14.1052 16.351C13.899 16.8934 13.6583 17.4167 13.3833 17.9208ZM3.89583 12.8333H7.01249C6.96666 12.5278 6.93229 12.226 6.90937 11.9281C6.88645 11.6302 6.87499 11.3208 6.87499 11C6.87499 10.6792 6.88645 10.3698 6.90937 10.0719C6.93229 9.77396 6.96666 9.47222 7.01249 9.16667H3.89583C3.81944 9.47222 3.76215 9.77396 3.72395 10.0719C3.68576 10.3698 3.66666 10.6792 3.66666 11C3.66666 11.3208 3.68576 11.6302 3.72395 11.9281C3.76215 12.226 3.81944 12.5278 3.89583 12.8333ZM8.84583 12.8333H13.1542C13.2 12.5278 13.2344 12.226 13.2573 11.9281C13.2802 11.6302 13.2917 11.3208 13.2917 11C13.2917 10.6792 13.2802 10.3698 13.2573 10.0719C13.2344 9.77396 13.2 9.47222 13.1542 9.16667H8.84583C8.79999 9.47222 8.76562 9.77396 8.7427 10.0719C8.71979 10.3698 8.70833 10.6792 8.70833 11C8.70833 11.3208 8.71979 11.6302 8.7427 11.9281C8.76562 12.226 8.79999 12.5278 8.84583 12.8333ZM14.9875 12.8333H18.1042C18.1805 12.5278 18.2378 12.226 18.276 11.9281C18.3142 11.6302 18.3333 11.3208 18.3333 11C18.3333 10.6792 18.3142 10.3698 18.276 10.0719C18.2378 9.77396 18.1805 9.47222 18.1042 9.16667H14.9875C15.0333 9.47222 15.0677 9.77396 15.0906 10.0719C15.1135 10.3698 15.125 10.6792 15.125 11C15.125 11.3208 15.1135 11.6302 15.0906 11.9281C15.0677 12.226 15.0333 12.5278 14.9875 12.8333ZM14.6208 7.33333H17.325C16.8819 6.56944 16.3281 5.90486 15.6635 5.33958C14.999 4.77431 14.2389 4.35417 13.3833 4.07917C13.6583 4.58333 13.899 5.1066 14.1052 5.64896C14.3115 6.19132 14.4833 6.75278 14.6208 7.33333ZM9.25833 7.33333H12.7417C12.5583 6.66111 12.3215 6.02708 12.0312 5.43125C11.741 4.83542 11.3972 4.2625 11 3.7125C10.6028 4.2625 10.259 4.83542 9.96874 5.43125C9.67847 6.02708 9.44166 6.66111 9.25833 7.33333ZM4.67499 7.33333H7.37916C7.51666 6.75278 7.68854 6.19132 7.89479 5.64896C8.10104 5.1066 8.34166 4.58333 8.61666 4.07917C7.76111 4.35417 7.00104 4.77431 6.33645 5.33958C5.67187 5.90486 5.11805 6.56944 4.67499 7.33333Z" fill="#555555"/>
</g>
</g>
</svg>
