<svg width="24" height="24" viewBox="0 0 24 24" fill="none" xmlns="http://www.w3.org/2000/svg">
<mask id="mask0_9725_1993" style="mask-type:alpha" maskUnits="userSpaceOnUse" x="0" y="0" width="24" height="24">
<rect width="24" height="24" fill="#D9D9D9"/>
</mask>
<g mask="url(#mask0_9725_1993)">
<path d="M7.44444 9.2V7H23V9.2H7.44444ZM7.44444 13.6V11.4H23V13.6H7.44444ZM7.44444 18V15.8H23V18H7.44444ZM4.11111 9.2C3.7963 9.2 3.53241 9.09458 3.31944 8.88375C3.10648 8.67292 3 8.41167 3 8.1C3 7.78833 3.10648 7.52708 3.31944 7.31625C3.53241 7.10542 3.7963 7 4.11111 7C4.42593 7 4.68981 7.10542 4.90278 7.31625C5.11574 7.52708 5.22222 7.78833 5.22222 8.1C5.22222 8.41167 5.11574 8.67292 4.90278 8.88375C4.68981 9.09458 4.42593 9.2 4.11111 9.2ZM4.11111 13.6C3.7963 13.6 3.53241 13.4946 3.31944 13.2838C3.10648 13.0729 3 12.8117 3 12.5C3 12.1883 3.10648 11.9271 3.31944 11.7162C3.53241 11.5054 3.7963 11.4 4.11111 11.4C4.42593 11.4 4.68981 11.5054 4.90278 11.7162C5.11574 11.9271 5.22222 12.1883 5.22222 12.5C5.22222 12.8117 5.11574 13.0729 4.90278 13.2838C4.68981 13.4946 4.42593 13.6 4.11111 13.6ZM4.11111 18C3.7963 18 3.53241 17.8946 3.31944 17.6838C3.10648 17.4729 3 17.2117 3 16.9C3 16.5883 3.10648 16.3271 3.31944 16.1163C3.53241 15.9054 3.7963 15.8 4.11111 15.8C4.42593 15.8 4.68981 15.9054 4.90278 16.1163C5.11574 16.3271 5.22222 16.5883 5.22222 16.9C5.22222 17.2117 5.11574 17.4729 4.90278 17.6838C4.68981 17.8946 4.42593 18 4.11111 18Z" fill="white"/>
</g>
</svg>
