<svg width="22" height="23" viewBox="0 0 22 23" fill="none" xmlns="http://www.w3.org/2000/svg">
<g id="search">
<mask id="mask0_12312_1258" style="mask-type:alpha" maskUnits="userSpaceOnUse" x="0" y="0" width="22" height="23">
<rect id="Bounding box" y="0.0625" width="22" height="22" fill="#D9D9D9"/>
</mask>
<g mask="url(#mask0_12312_1258)">
<path id="search_check_2" d="M9.16634 14.7293C10.6941 14.7293 11.9927 14.1946 13.0622 13.1252C14.1316 12.0557 14.6663 10.7571 14.6663 9.22933C14.6663 7.70155 14.1316 6.40294 13.0622 5.3335C11.9927 4.26405 10.6941 3.72933 9.16634 3.72933C7.63856 3.72933 6.33995 4.26405 5.27051 5.3335C4.20106 6.40294 3.66634 7.70155 3.66634 9.22933C3.66634 10.7571 4.20106 12.0557 5.27051 13.1252C6.33995 14.1946 7.63856 14.7293 9.16634 14.7293ZM9.16634 16.5627C7.11912 16.5627 5.38509 15.8522 3.96426 14.4314C2.54342 13.0106 1.83301 11.2766 1.83301 9.22933C1.83301 7.18211 2.54342 5.44808 3.96426 4.02725C5.38509 2.60641 7.11912 1.896 9.16634 1.896C11.2136 1.896 12.9476 2.60641 14.3684 4.02725C15.7893 5.44808 16.4997 7.18211 16.4997 9.22933C16.4997 10.0849 16.366 10.8908 16.0986 11.647C15.8313 12.4033 15.4531 13.0946 14.9643 13.721L19.5247 18.2814C19.708 18.4647 19.7997 18.6825 19.7997 18.9345C19.7997 19.1866 19.708 19.4043 19.5247 19.5877C19.3413 19.771 19.1236 19.8627 18.8715 19.8627C18.6195 19.8627 18.4018 19.771 18.2184 19.5877L13.658 15.0272C13.0316 15.5161 12.3403 15.8943 11.584 16.1616C10.8278 16.429 10.0219 16.5627 9.16634 16.5627Z" fill="white"/>
</g>
</g>
</svg>
