<svg width="22" height="22" viewBox="0 0 22 22" fill="none" xmlns="http://www.w3.org/2000/svg">
<g id="share">
<mask id="mask0_12169_3142" style="mask-type:alpha" maskUnits="userSpaceOnUse" x="0" y="0" width="22" height="22">
<rect id="Bounding box" width="22" height="22" fill="#D9D9D9"/>
</mask>
<g mask="url(#mask0_12169_3142)">
<path id="share_2" d="M15.5834 20.1667C14.8195 20.1667 14.1702 19.8993 13.6355 19.3646C13.1007 18.8299 12.8334 18.1806 12.8334 17.4167C12.8334 17.325 12.8563 17.1111 12.9021 16.775L6.46254 13.0167C6.2181 13.2458 5.93546 13.4254 5.61462 13.5552C5.29379 13.6851 4.95004 13.75 4.58337 13.75C3.81949 13.75 3.17018 13.4826 2.63546 12.9479C2.10074 12.4132 1.83337 11.7639 1.83337 11C1.83337 10.2361 2.10074 9.58682 2.63546 9.05209C3.17018 8.51737 3.81949 8.25001 4.58337 8.25001C4.95004 8.25001 5.29379 8.31494 5.61462 8.4448C5.93546 8.57466 6.2181 8.75418 6.46254 8.98334L12.9021 5.22501C12.8716 5.11807 12.8525 5.01494 12.8448 4.91564C12.8372 4.81633 12.8334 4.70557 12.8334 4.58334C12.8334 3.81945 13.1007 3.17015 13.6355 2.63543C14.1702 2.1007 14.8195 1.83334 15.5834 1.83334C16.3473 1.83334 16.9966 2.1007 17.5313 2.63543C18.066 3.17015 18.3334 3.81945 18.3334 4.58334C18.3334 5.34723 18.066 5.99654 17.5313 6.53126C16.9966 7.06598 16.3473 7.33334 15.5834 7.33334C15.2167 7.33334 14.873 7.26841 14.5521 7.13855C14.2313 7.00869 13.9487 6.82918 13.7042 6.60001L7.26462 10.3583C7.29518 10.4653 7.31428 10.5684 7.32192 10.6677C7.32956 10.767 7.33337 10.8778 7.33337 11C7.33337 11.1222 7.32956 11.233 7.32192 11.3323C7.31428 11.4316 7.29518 11.5347 7.26462 11.6417L13.7042 15.4C13.9487 15.1708 14.2313 14.9913 14.5521 14.8615C14.873 14.7316 15.2167 14.6667 15.5834 14.6667C16.3473 14.6667 16.9966 14.934 17.5313 15.4688C18.066 16.0035 18.3334 16.6528 18.3334 17.4167C18.3334 18.1806 18.066 18.8299 17.5313 19.3646C16.9966 19.8993 16.3473 20.1667 15.5834 20.1667Z" fill="#111111"/>
</g>
</g>
</svg>
