<svg width="24" height="24" viewBox="0 0 24 24" fill="none" xmlns="http://www.w3.org/2000/svg">
<mask id="mask0_12317_9183" style="mask-type:alpha" maskUnits="userSpaceOnUse" x="0" y="0" width="24" height="24">
<rect width="24" height="24" fill="#D9D9D9"/>
</mask>
<g mask="url(#mask0_12317_9183)">
<path d="M19.025 4.975C19.175 5.125 19.25 5.3 19.25 5.5C19.25 5.7 19.175 5.875 19.025 6.025L6.025 19.025C5.875 19.175 5.7 19.25 5.5 19.25C5.3 19.25 5.125 19.175 4.975 19.025C4.825 18.875 4.75 18.7 4.75 18.5C4.75 18.3 4.825 18.125 4.975 17.975L17.975 4.975C18.125 4.825 18.3 4.75 18.5 4.75C18.7 4.75 18.875 4.825 19.025 4.975Z" fill="#555555"/>
</g>
</svg>
