<?xml version="1.0" encoding="UTF-8"?>
<svg id="_圖層_1" data-name="圖層_1" xmlns="http://www.w3.org/2000/svg" xmlns:xlink="http://www.w3.org/1999/xlink" version="1.1" viewBox="0 0 18 18">
  <!-- Generator: Adobe Illustrator 29.5.0, SVG Export Plug-In . SVG Version: 2.1.0 Build 137)  -->
  <defs>
    <style>
      .st0 {
        mask: url(#mask);
      }

      .st1 {
        fill: #d9d9d9;
      }
    </style>
    <mask id="mask" x="0" y="0" width="18" height="18" maskUnits="userSpaceOnUse">
      <g id="mask0_12208_1235">
        <rect id="Bounding_box" class="st1" width="18" height="18"/>
      </g>
    </mask>
  </defs>
  <g id="tag">
    <g class="st0">
      <path id="sell" d="M16,10.7l-5.4,5.4c-.1.2-.3.3-.5.3-.2,0-.4.1-.6.1s-.4,0-.6-.1c-.2,0-.4-.2-.5-.3L1.9,9.4c-.1-.1-.2-.3-.3-.5,0-.2-.1-.4-.1-.6V3c0-.4.1-.8.4-1.1.3-.3.6-.4,1.1-.4h5.4c.2,0,.4,0,.6.1.2,0,.4.2.5.3l6.6,6.6c.2.1.3.3.3.5,0,.2.1.4.1.6s0,.4-.1.6c0,.2-.2.3-.3.5ZM9.6,15l5.4-5.4-6.6-6.6H3v5.4l6.6,6.6ZM4.9,6c.3,0,.6-.1.8-.3.2-.2.3-.5.3-.8s-.1-.6-.3-.8c-.2-.2-.5-.3-.8-.3s-.6.1-.8.3c-.2.2-.3.5-.3.8s.1.6.3.8c.2.2.5.3.8.3Z"/>
    </g>
  </g>
</svg>