<svg width="24" height="24" viewBox="0 0 24 24" fill="none" xmlns="http://www.w3.org/2000/svg">
<mask id="mask0_9812_3037" style="mask-type:alpha" maskUnits="userSpaceOnUse" x="0" y="0" width="24" height="24">
<rect width="24" height="24" fill="#D9D9D9"/>
</mask>
<g mask="url(#mask0_9812_3037)">
<path d="M12 17C13.25 17 14.3125 16.5625 15.1875 15.6875C16.0625 14.8125 16.5 13.75 16.5 12.5C16.5 11.25 16.0625 10.1875 15.1875 9.3125C14.3125 8.4375 13.25 8 12 8C10.75 8 9.6875 8.4375 8.8125 9.3125C7.9375 10.1875 7.5 11.25 7.5 12.5C7.5 13.75 7.9375 14.8125 8.8125 15.6875C9.6875 16.5625 10.75 17 12 17ZM12 15.2C11.25 15.2 10.6125 14.9375 10.0875 14.4125C9.5625 13.8875 9.3 13.25 9.3 12.5C9.3 11.75 9.5625 11.1125 10.0875 10.5875C10.6125 10.0625 11.25 9.8 12 9.8C12.75 9.8 13.3875 10.0625 13.9125 10.5875C14.4375 11.1125 14.7 11.75 14.7 12.5C14.7 13.25 14.4375 13.8875 13.9125 14.4125C13.3875 14.9375 12.75 15.2 12 15.2ZM12 20C9.56667 20 7.35 19.3208 5.35 17.9625C3.35 16.6042 1.9 14.7833 1 12.5C1.9 10.2167 3.35 8.39583 5.35 7.0375C7.35 5.67917 9.56667 5 12 5C14.4333 5 16.65 5.67917 18.65 7.0375C20.65 8.39583 22.1 10.2167 23 12.5C22.1 14.7833 20.65 16.6042 18.65 17.9625C16.65 19.3208 14.4333 20 12 20ZM12 18C13.8833 18 15.6125 17.5042 17.1875 16.5125C18.7625 15.5208 19.9667 14.1833 20.8 12.5C19.9667 10.8167 18.7625 9.47917 17.1875 8.4875C15.6125 7.49583 13.8833 7 12 7C10.1167 7 8.3875 7.49583 6.8125 8.4875C5.2375 9.47917 4.03333 10.8167 3.2 12.5C4.03333 14.1833 5.2375 15.5208 6.8125 16.5125C8.3875 17.5042 10.1167 18 12 18Z" fill="#555555"/>
</g>
</svg>
