<svg width="24" height="24" viewBox="0 0 24 24" fill="none" xmlns="http://www.w3.org/2000/svg">
<mask id="mask0_12047_361" style="mask-type:alpha" maskUnits="userSpaceOnUse" x="0" y="0" width="24" height="24">
<rect width="24" height="24" fill="#D9D9D9"/>
</mask>
<g mask="url(#mask0_12047_361)">
<path d="M12.0669 20.0165L8.05407 16.0036L4.05892 16.0036C3.5168 16.0036 3.04835 15.8062 2.65355 15.4114C2.25874 15.0166 2.06134 14.5482 2.06134 14.006L2.06134 10.0109C2.06134 9.46878 2.26169 8.99737 2.66238 8.59668C3.06308 8.19599 3.53448 7.99564 4.0766 7.99564L8.0364 7.99564L12.0492 3.98281L12.0669 20.0165ZM14.0114 3.22267C16.0738 3.68229 17.7591 4.72527 19.0673 6.35161C20.3754 7.97796 21.0295 9.85179 21.0295 11.9731C21.0295 14.0944 20.3754 15.9683 19.0673 17.5946C17.7591 19.221 16.0738 20.2639 14.0114 20.7236V18.673C15.5082 18.2369 16.7161 17.4002 17.6354 16.1627C18.5546 14.9253 19.0142 13.5287 19.0142 11.9731C19.0142 10.4175 18.5546 9.02094 17.6354 7.78351C16.7161 6.54607 15.5082 5.70933 14.0114 5.27328L14.0114 3.22267ZM14.0114 7.3946C14.8835 7.866 15.6024 8.5024 16.1681 9.30379C16.7338 10.1052 17.0167 11.0008 17.0167 11.9908C17.0167 12.9807 16.7338 13.8705 16.1681 14.6601C15.6024 15.4497 14.8835 16.0802 14.0114 16.5516V14.1475C14.3061 13.8528 14.5477 13.5229 14.7362 13.1575C14.9248 12.7922 15.0191 12.4092 15.0191 12.0085C15.0191 11.5842 14.9277 11.1865 14.7451 10.8152C14.5624 10.444 14.3179 10.1052 14.0114 9.79876V7.3946Z" fill="#555555"/>
</g>
</svg>
