<svg width="20" height="20" viewBox="0 0 20 20" fill="none" xmlns="http://www.w3.org/2000/svg">
<g id="warning">
<mask id="mask0_12312_988" style="mask-type:alpha" maskUnits="userSpaceOnUse" x="0" y="0" width="20" height="20">
<rect id="Bounding box" width="20" height="20" fill="#D9D9D9"/>
</mask>
<g mask="url(#mask0_12312_988)">
<path id="warning_2" d="M0.833008 17.4998L9.99967 1.6665L19.1663 17.4998H0.833008ZM3.70801 15.8332H16.2913L9.99967 4.99984L3.70801 15.8332ZM9.99967 14.9998C10.2358 14.9998 10.4337 14.92 10.5934 14.7603C10.7531 14.6005 10.833 14.4026 10.833 14.1665C10.833 13.9304 10.7531 13.7325 10.5934 13.5728C10.4337 13.413 10.2358 13.3332 9.99967 13.3332C9.76356 13.3332 9.56565 13.413 9.40592 13.5728C9.2462 13.7325 9.16634 13.9304 9.16634 14.1665C9.16634 14.4026 9.2462 14.6005 9.40592 14.7603C9.56565 14.92 9.76356 14.9998 9.99967 14.9998ZM9.16634 12.4998H10.833V8.33317H9.16634V12.4998Z" fill="#C23E00"/>
</g>
</g>
</svg>
